<svg width="256" height="256" xmlns="http://www.w3.org/2000/svg">

 <g>
  <title>background</title>
  <rect fill="none" id="canvas_background" height="602" width="802" y="-1" x="-1"/>
 </g>
 <g>
  <title>Layer 1</title>
  <path id="svg_1" fill="#666666" d="m222.394,16.135l-188.788,0c-9.447,0 -17.106,7.658 -17.106,17.106l0,130.289c0,9.447 7.658,17.105 17.106,17.105l188.789,0c9.447,0 17.106,-7.658 17.106,-17.105l0,-130.289c-0.001,-9.447 -7.659,-17.106 -17.107,-17.106z"/>
  <path id="svg_2" fill="#3a312a" d="m222.394,14.635l-188.788,0c-10.26,0 -18.606,8.346 -18.606,18.606l0,130.289c0,10.259 8.346,18.606 18.606,18.606l188.789,0c10.259,0 18.606,-8.346 18.606,-18.606l0,-130.289c-0.001,-10.26 -8.347,-18.606 -18.607,-18.606zm15.606,148.895c0,8.605 -7,15.606 -15.606,15.606l-188.788,0c-8.606,-0.001 -15.606,-7.001 -15.606,-15.606l0,-130.289c0,-8.605 7,-15.605 15.606,-15.605l188.789,0c8.605,0 15.606,7 15.606,15.605l0,130.289l-0.001,0z"/>
  <path id="svg_3" fill="#aad4ff" d="m214.97,28.64l-173.94,0c-6.58,0 -11.92,5.33 -11.92,11.92l0,115.66c0,6.58 5.34,11.92 11.92,11.92l173.94,0c6.58,0 11.92,-5.34 11.92,-11.92l0,-115.66c0,-6.59 -5.34,-11.92 -11.92,-11.92z"/>
  <path id="svg_4" fill="#3a312a" d="m214.97,27.14l-128.637,0c-0.829,0 -1.5,0.671 -1.5,1.5s0.671,1.5 1.5,1.5l128.637,0c5.746,0 10.42,4.674 10.42,10.42l0,115.66c0,5.746 -4.674,10.42 -10.42,10.42l-173.94,0c-5.746,0 -10.42,-4.674 -10.42,-10.42l0,-115.66c0,-5.746 4.674,-10.42 10.42,-10.42l32.638,0c0.829,0 1.5,-0.671 1.5,-1.5s-0.671,-1.5 -1.5,-1.5l-32.638,0c-7.4,0 -13.42,6.02 -13.42,13.42l0,115.66c0,7.4 6.02,13.42 13.42,13.42l173.94,0c7.4,0 13.42,-6.02 13.42,-13.42l0,-115.66c0,-7.4 -6.02,-13.42 -13.42,-13.42z"/>
  <path id="svg_5" fill="#666666" d="m113.688,180.635l28.625,0l0,35.593l-28.625,0l0,-35.593z"/>
  <path id="svg_6" fill="#3a312a" d="m142.313,179.135l-28.625,0c-0.829,0 -1.5,0.671 -1.5,1.5l0,35.593c0,0.829 0.671,1.5 1.5,1.5l28.625,0c0.829,0 1.5,-0.671 1.5,-1.5l0,-35.593c0,-0.828 -0.672,-1.5 -1.5,-1.5zm-1.5,35.593l-25.625,0l0,-32.593l25.625,0l0,32.593z"/>
  <path id="svg_7" fill="#666666" d="m148.296,216.229l-40.593,0c-12.927,0 -23.407,10.479 -23.407,23.407l87.406,0c0.001,-12.928 -10.478,-23.407 -23.406,-23.407z"/>
  <path id="svg_8" fill="#3a312a" d="m148.296,214.728l-40.593,0c-13.733,0 -24.907,11.173 -24.907,24.907c0,0.829 0.671,1.5 1.5,1.5l37.584,0c0.829,0 1.5,-0.671 1.5,-1.5s-0.671,-1.5 -1.5,-1.5l-36.032,0c0.773,-11.382 10.281,-20.407 21.856,-20.407l40.593,0c11.575,0 21.083,9.024 21.856,20.407l-34.701,0c-0.829,0 -1.5,0.671 -1.5,1.5s0.671,1.5 1.5,1.5l36.251,0c0.829,0 1.5,-0.671 1.5,-1.5c0,-13.733 -11.173,-24.907 -24.907,-24.907z"/>
  <path id="svg_15" fill="#3a312a" d="m199.452,71.315c-0.559,-0.611 -1.508,-0.653 -2.119,-0.094l-36.006,32.965l-33.13,-18.2c-0.598,-0.329 -1.341,-0.213 -1.811,0.283l-33.911,35.796l-33.715,-21.061c-0.704,-0.439 -1.628,-0.225 -2.067,0.477c-0.439,0.703 -0.226,1.628 0.477,2.067l34.754,21.712c0.246,0.153 0.521,0.228 0.794,0.228c0.401,0 0.798,-0.161 1.089,-0.468l33.958,-35.846l33.058,18.16c0.563,0.31 1.261,0.226 1.735,-0.208l36.799,-33.691c0.612,-0.56 0.654,-1.509 0.095,-2.12z"/>
  <ellipse id="svg_16" transform="matrix(0.707,-0.707,0.707,0.707,-60.389,102.185) " ry="9.81" rx="9.81" fill="#00bf5f" cy="123.988" cx="93.154"/>
  <path id="svg_17" fill="#3a312a" d="m93.154,112.678c-6.236,0 -11.31,5.073 -11.31,11.31c0,6.236 5.074,11.31 11.31,11.31s11.31,-5.074 11.31,-11.31c-0.001,-6.237 -5.074,-11.31 -11.31,-11.31zm0,19.62c-4.582,0 -8.31,-3.728 -8.31,-8.31s3.728,-8.31 8.31,-8.31s8.31,3.728 8.31,8.31c-0.001,4.582 -3.728,8.31 -8.31,8.31z"/>
  <ellipse id="svg_18" transform="matrix(0.995,-0.099,0.099,0.995,-7.993,13) " ry="9.81" rx="9.81" fill="#00bf5f" cy="87.42" cx="127.614"/>
  <path id="svg_19" fill="#3a312a" d="m127.614,76.11c-6.236,0 -11.31,5.074 -11.31,11.31s5.074,11.31 11.31,11.31s11.31,-5.074 11.31,-11.31s-5.073,-11.31 -11.31,-11.31zm0,19.62c-4.582,0 -8.31,-3.728 -8.31,-8.31s3.728,-8.31 8.31,-8.31s8.31,3.728 8.31,8.31s-3.728,8.31 -8.31,8.31z"/>
  <path id="svg_20" fill="#00bf5f" d="m161.545,96.135c-5.418,0 -9.81,4.392 -9.81,9.81s4.392,9.81 9.81,9.81s9.81,-4.392 9.81,-9.81s-4.392,-9.81 -9.81,-9.81z"/>
  <path id="svg_21" fill="#3a312a" d="m161.545,94.635c-6.236,0 -11.31,5.074 -11.31,11.31s5.073,11.31 11.31,11.31c6.236,0 11.31,-5.074 11.31,-11.31c0.001,-6.237 -5.073,-11.31 -11.31,-11.31zm0,19.62c-4.582,0 -8.31,-3.728 -8.31,-8.31s3.728,-8.31 8.31,-8.31s8.31,3.728 8.31,8.31c0.001,4.582 -3.728,8.31 -8.31,8.31z"/>
  <ellipse id="svg_22" transform="matrix(0.526,-0.851,0.851,0.526,32.543,203.026) " ry="9.81" rx="9.81" fill="#00bf5f" cy="72.328" cx="198.345"/>
  <path id="svg_23" fill="#3a312a" d="m198.345,61.018c-6.236,0 -11.31,5.074 -11.31,11.31s5.074,11.31 11.31,11.31s11.31,-5.074 11.31,-11.31s-5.074,-11.31 -11.31,-11.31zm0,19.62c-4.582,0 -8.31,-3.728 -8.31,-8.31s3.728,-8.31 8.31,-8.31s8.31,3.728 8.31,8.31s-3.728,8.31 -8.31,8.31z"/>
  <ellipse id="svg_24" transform="matrix(0.099,-0.995,0.995,0.099,-49.613,149.961) " ry="9.81" rx="9.81" fill="#00bf5f" cy="102.365" cx="57.965"/>
  <path id="svg_25" fill="#3a312a" d="m57.965,91.055c-6.236,0 -11.31,5.074 -11.31,11.31s5.073,11.31 11.31,11.31c6.236,0 11.31,-5.074 11.31,-11.31c0,-6.237 -5.074,-11.31 -11.31,-11.31zm0,19.62c-4.582,0 -8.31,-3.728 -8.31,-8.31s3.727,-8.31 8.31,-8.31c4.582,0 8.31,3.728 8.31,8.31s-3.728,8.31 -8.31,8.31z"/>
  <ellipse id="svg_26" transform="matrix(0.707,-0.707,0.707,0.707,-76.199,183.768) " ry="55.771" rx="55.772" fill="#005fbf" cy="183.864" cx="183.729"/>
  <path id="svg_27" fill="#3a312a" d="m183.729,126.592c-31.58,0 -57.271,25.692 -57.271,57.271s25.692,57.272 57.271,57.272s57.271,-25.692 57.271,-57.271s-25.692,-57.272 -57.271,-57.272zm0,111.543c-29.925,0 -54.271,-24.346 -54.271,-54.272s24.346,-54.271 54.271,-54.271s54.271,24.346 54.271,54.272s-24.346,54.271 -54.271,54.271z"/>
  <ellipse id="svg_28" transform="matrix(0.383,-0.924,0.924,0.383,-56.45,283.245) " ry="43.684" rx="43.684" fill="#f2f293" cy="183.864" cx="183.729"/>
  <g id="svg_29" fill="#3a312a">
   <path id="svg_30" d="m183.729,138.68c-24.914,0 -45.184,20.269 -45.184,45.184s20.27,45.185 45.184,45.185c24.915,0 45.184,-20.269 45.184,-45.185c0,-24.915 -20.27,-45.184 -45.184,-45.184zm0,87.368c-23.26,0 -42.184,-18.924 -42.184,-42.185c0,-23.26 18.924,-42.184 42.184,-42.184s42.184,18.924 42.184,42.184c0,23.262 -18.924,42.185 -42.184,42.185z"/>
   <path id="svg_31" d="m183.729,144.813c-0.822,0 -1.488,0.666 -1.488,1.488l0,3.024c0,0.822 0.666,1.488 1.488,1.488s1.489,-0.666 1.489,-1.488l0,-3.024c-0.001,-0.822 -0.667,-1.488 -1.489,-1.488z"/>
   <path id="svg_32" d="m183.729,216.914c-0.822,0 -1.488,0.666 -1.488,1.488l0,3.024c0,0.822 0.666,1.489 1.488,1.489s1.489,-0.666 1.489,-1.489l0,-3.024c-0.001,-0.822 -0.667,-1.488 -1.489,-1.488z"/>
   <path id="svg_33" d="m221.291,182.375l-3.024,0c-0.822,0 -1.489,0.666 -1.489,1.489c0,0.822 0.666,1.488 1.489,1.488l3.024,0c0.822,0 1.488,-0.666 1.488,-1.488c0.001,-0.822 -0.666,-1.489 -1.488,-1.489z"/>
   <path id="svg_34" d="m149.19,182.375l-3.024,0c-0.822,0 -1.489,0.666 -1.489,1.489c0,0.822 0.666,1.488 1.489,1.488l3.024,0c0.822,0 1.488,-0.666 1.488,-1.488c0.001,-0.822 -0.666,-1.489 -1.488,-1.489z"/>
   <path id="svg_35" d="m211.342,156.251c-0.581,-0.581 -1.524,-0.581 -2.105,0l-2.138,2.138c-0.581,0.581 -0.581,1.524 0,2.105s1.524,0.581 2.105,0l2.138,-2.138c0.581,-0.582 0.581,-1.524 0,-2.105z"/>
   <path id="svg_36" d="m160.359,207.234c-0.581,-0.581 -1.524,-0.581 -2.105,0l-2.138,2.138c-0.581,0.581 -0.581,1.524 0,2.105s1.524,0.581 2.105,0l2.138,-2.138c0.581,-0.581 0.581,-1.524 0,-2.105z"/>
   <path id="svg_37" d="m211.342,209.372l-2.138,-2.138c-0.581,-0.581 -1.524,-0.581 -2.105,0s-0.581,1.524 0,2.105l2.138,2.138c0.581,0.581 1.524,0.581 2.105,0s0.581,-1.524 0,-2.105z"/>
   <path id="svg_38" d="m160.359,158.389l-2.138,-2.138c-0.581,-0.581 -1.524,-0.581 -2.105,0s-0.581,1.524 0,2.105l2.138,2.138c0.581,0.581 1.524,0.581 2.105,0s0.581,-1.524 0,-2.105z"/>
   <path id="svg_39" d="m184.789,182.803l-12.845,-12.845c-0.586,-0.586 -1.535,-0.586 -2.121,0c-0.586,0.585 -0.586,1.536 0,2.121l12.845,12.845c0.293,0.293 0.677,0.44 1.06,0.44s0.768,-0.146 1.061,-0.44c0.586,-0.585 0.586,-1.535 0,-2.121z"/>
   <path id="svg_40" d="m205.886,162.176c-0.586,-0.586 -1.535,-0.586 -2.121,0l-20.862,20.862c-0.586,0.585 -0.586,1.536 0,2.121c0.293,0.293 0.677,0.439 1.061,0.439s0.768,-0.146 1.06,-0.439l20.862,-20.862c0.586,-0.586 0.586,-1.536 0,-2.121z"/>
  </g>
  <path id="svg_41" fill="#99ccff" d="m214.965,30.142l-16,0c5.75,0 10.42,4.67 10.42,10.42l0,29.32c0.18,0.79 0.27,1.61 0.27,2.45s-0.09,1.66 -0.27,2.45l0,57.89c6.01,3.03 11.42,7.09 16,11.95l0,-104.059c0,-5.75 -4.67,-10.421 -10.42,-10.421z"/>
 </g>
</svg>